<svg width="183" height="56" viewBox="0 0 183 56" fill="none" xmlns="http://www.w3.org/2000/svg">
<rect width="27.6418" height="27.6418" rx="2.94778" transform="matrix(0.866025 -0.5 0.866025 0.5 0.849609 13.084)" fill="white"/>
<rect width="11.0542" height="28.7642" rx="2.94778" transform="matrix(0.866025 -0.5 2.20305e-08 1 25.1543 28.2397)" fill="white"/>
<path d="M25.8359 32.5027C24.6256 31.2422 25.8487 27.8183 27.9328 26.6326L32.3217 24.1354C33.136 23.6721 33.8987 23.6868 34.3746 24.175L48.5867 38.7534C49.8007 39.9987 48.6009 43.4078 46.5238 44.6151L42.0306 47.2265C41.2026 47.7077 40.4246 47.6961 39.9438 47.1954L25.8359 32.5027Z" fill="white"/>
<rect width="11.0542" height="28.7642" rx="2.94778" transform="matrix(0.866025 -0.5 2.20305e-08 1 39.5127 19.8975)" fill="white"/>
<rect width="27.6418" height="12.7851" rx="2.94778" transform="matrix(-0.866025 -0.5 -2.20305e-08 1 24.0244 28.2397)" fill="white"/>
<rect width="27.6418" height="12.8089" rx="2.94778" transform="matrix(-0.866025 -0.5 -2.20305e-08 1 24.0244 43.0908)" fill="white"/>
<path d="M58.1608 24.5039V7.93318H70.1034V11.558H62.6595V14.4061H69.4885V18.031H62.6595V20.8791H70.071V24.5039H58.1608ZM76.7012 7.93318L79.4198 12.7555H79.5493L82.3003 7.93318H87.3168L82.365 16.2185L87.511 24.5039H82.365L79.5493 19.5845H79.4198L76.6041 24.5039H71.4905L76.5717 16.2185L71.6523 7.93318H76.7012ZM88.801 24.5039V7.93318H95.9536C97.1834 7.93318 98.2595 8.17592 99.1819 8.66139C100.104 9.14686 100.822 9.82921 101.334 10.7085C101.847 11.5877 102.103 12.6153 102.103 13.7912C102.103 14.9779 101.839 16.0055 101.31 16.8739C100.787 17.7424 100.05 18.4113 99.101 18.8805C98.157 19.3498 97.054 19.5845 95.7917 19.5845H91.5196V16.0891H94.8855C95.4141 16.0891 95.8645 15.9974 96.2367 15.814C96.6143 15.6252 96.9029 15.3582 97.1025 15.013C97.3075 14.6677 97.41 14.2605 97.41 13.7912C97.41 13.3165 97.3075 12.912 97.1025 12.5775C96.9029 12.2377 96.6143 11.9788 96.2367 11.8008C95.8645 11.6174 95.4141 11.5257 94.8855 11.5257H93.2996V24.5039H88.801ZM103.298 24.5039V7.93318H115.24V11.558H107.796V14.4061H114.625V18.031H107.796V20.8791H115.208V24.5039H103.298ZM117.016 24.5039V7.93318H124.168C125.398 7.93318 126.474 8.15704 127.397 8.60475C128.319 9.05246 129.037 9.69706 129.549 10.5385C130.061 11.38 130.318 12.3887 130.318 13.5646C130.318 14.7513 130.053 15.752 129.525 16.5665C129.001 17.381 128.265 17.9959 127.316 18.4113C126.372 18.8266 125.269 19.0343 124.007 19.0343H119.734V15.5389H123.1C123.629 15.5389 124.079 15.4742 124.452 15.3447C124.829 15.2098 125.118 14.9968 125.317 14.7055C125.522 14.4142 125.625 14.0339 125.625 13.5646C125.625 13.09 125.522 12.7043 125.317 12.4076C125.118 12.1055 124.829 11.8844 124.452 11.7441C124.079 11.5985 123.629 11.5257 123.1 11.5257H121.514V24.5039H117.016ZM126.725 16.8982L130.868 24.5039H125.981L121.935 16.8982H126.725ZM131.326 11.558V7.93318H145.729V11.558H140.745V24.5039H136.311V11.558H131.326ZM151.465 7.93318V24.5039H146.966V7.93318H151.465ZM162.074 13.1115C162.031 12.5721 161.828 12.1514 161.467 11.8493C161.111 11.5472 160.569 11.3962 159.841 11.3962C159.377 11.3962 158.996 11.4528 158.7 11.5661C158.409 11.674 158.193 11.8223 158.053 12.0111C157.912 12.1999 157.839 12.4157 157.834 12.6584C157.823 12.858 157.858 13.0387 157.939 13.2005C158.026 13.357 158.16 13.4999 158.344 13.6294C158.527 13.7534 158.762 13.8667 159.048 13.9692C159.334 14.0717 159.673 14.1634 160.067 14.2443L161.427 14.5356C162.344 14.7298 163.128 14.986 163.781 15.3042C164.434 15.6225 164.968 15.9974 165.383 16.4289C165.798 16.855 166.103 17.3351 166.297 17.8691C166.497 18.4032 166.599 18.9857 166.605 19.6168C166.599 20.7064 166.327 21.6288 165.788 22.384C165.248 23.1392 164.477 23.7137 163.474 24.1074C162.476 24.5012 161.275 24.6981 159.873 24.6981C158.433 24.6981 157.176 24.485 156.103 24.0589C155.034 23.6328 154.204 22.9774 153.61 22.0927C153.022 21.2027 152.726 20.0645 152.72 18.6783H156.993C157.02 19.1853 157.146 19.6114 157.373 19.9567C157.599 20.3019 157.918 20.5635 158.328 20.7415C158.743 20.9195 159.237 21.0085 159.808 21.0085C160.288 21.0085 160.69 20.9492 161.014 20.8305C161.338 20.7118 161.583 20.5473 161.75 20.337C161.917 20.1266 162.004 19.8865 162.009 19.6168C162.004 19.3633 161.92 19.1422 161.758 18.9534C161.602 18.7592 161.343 18.5866 160.982 18.4355C160.62 18.2791 160.132 18.1335 159.517 17.9986L157.866 17.6426C156.399 17.3243 155.242 16.793 154.395 16.0486C153.554 15.2988 153.136 14.2767 153.141 12.9821C153.136 11.9302 153.416 11.0105 153.983 10.223C154.554 9.43005 155.345 8.81242 156.353 8.3701C157.367 7.92779 158.53 7.70663 159.841 7.70663C161.178 7.70663 162.335 7.93048 163.312 8.3782C164.288 8.82591 165.041 9.45702 165.569 10.2715C166.103 11.0806 166.373 12.0273 166.378 13.1115H162.074ZM167.86 24.5039V7.93318H179.803V11.558H172.359V14.4061H179.188V18.031H172.359V20.8791H179.771V24.5039H167.86Z" fill="white"/>
<path d="M58.2184 47.5039V30.0396H65.7908C67.1211 30.0396 68.2382 30.2187 69.1421 30.5768C70.0517 30.935 70.7368 31.441 71.1972 32.0947C71.6634 32.7485 71.8965 33.5188 71.8965 34.4057C71.8965 35.0481 71.7544 35.6336 71.4701 36.1623C71.1916 36.6911 70.7993 37.1345 70.2933 37.4926C69.7874 37.8451 69.1961 38.0896 68.5196 38.226V38.3966C69.27 38.425 69.9522 38.6154 70.5662 38.9679C71.1802 39.3147 71.6691 39.7951 72.0329 40.409C72.3968 41.0173 72.5787 41.7336 72.5787 42.558C72.5787 43.513 72.3285 44.3629 71.8283 45.1077C71.3337 45.8524 70.6287 46.438 69.7135 46.8643C68.7982 47.2907 67.7067 47.5039 66.4389 47.5039H58.2184ZM62.9597 43.7177H65.1768C65.9727 43.7177 66.5697 43.5699 66.9676 43.2743C67.3656 42.973 67.5645 42.5295 67.5645 41.944C67.5645 41.5347 67.4707 41.1879 67.2831 40.9036C67.0955 40.6194 66.8283 40.4034 66.4815 40.2555C66.1404 40.1077 65.7283 40.0338 65.2451 40.0338H62.9597V43.7177ZM62.9597 37.1004H64.904C65.319 37.1004 65.6856 37.035 66.004 36.9042C66.3224 36.7735 66.5697 36.5859 66.7459 36.3414C66.9278 36.0913 67.0188 35.7871 67.0188 35.429C67.0188 34.8889 66.8255 34.4767 66.4389 34.1925C66.0523 33.9026 65.5634 33.7576 64.9722 33.7576H62.9597V37.1004ZM78.315 47.5039H73.1985L78.963 30.0396H85.4439L91.2085 47.5039H86.092L82.2717 34.8491H82.1353L78.315 47.5039ZM77.3599 40.6137H86.9789V44.1611H77.3599V40.6137ZM89.7284 33.8599V30.0396H104.907V33.8599H99.6544V47.5039H94.9813V33.8599H89.7284ZM110.953 30.0396V47.5039H106.211V30.0396H110.953ZM112.719 30.0396H118.62L122.68 39.9315H122.884L126.943 30.0396H132.844V47.5039H128.205V37.4074H128.069L124.18 47.3675H121.383L117.495 37.3391H117.358V47.5039H112.719V30.0396ZM134.611 47.5039V30.0396H147.198V33.8599H139.352V36.8616H146.55V40.6819H139.352V43.6836H147.163V47.5039H134.611ZM164.179 30.0396V47.5039H160.223L153.912 38.3283H153.81V47.5039H149.069V30.0396H153.094L159.302 39.1811H159.438V30.0396H164.179ZM165.464 33.8599V30.0396H180.643V33.8599H175.39V47.5039H170.717V33.8599H165.464Z" fill="white"/>
</svg>
