<svg width="1027" height="342" viewBox="0 0 1027 342" fill="none" xmlns="http://www.w3.org/2000/svg">
<rect width="150.035" height="150.035" rx="16" transform="matrix(0.866025 -0.5 0.866025 0.5 33.6377 75.9103)" fill="#2563EB"/>
<g filter="url(#filter0_bd_70_494)">
<rect width="60" height="156.127" rx="16" transform="matrix(0.866025 -0.5 2.20305e-08 1 165.565 158.171)" fill="#2563EB"/>
</g>
<g filter="url(#filter1_bd_70_494)">
<path d="M169.263 181.31C162.694 174.469 169.332 155.884 180.644 149.448L204.466 135.894C208.886 133.379 213.026 133.459 215.609 136.109L292.75 215.238C299.339 221.997 292.827 240.501 281.553 247.054L257.165 261.228C252.67 263.84 248.448 263.777 245.838 261.059L169.263 181.31Z" fill="#2563EB"/>
</g>
<g filter="url(#filter2_bd_70_494)">
<rect width="60" height="156.127" rx="16" transform="matrix(0.866025 -0.5 2.20305e-08 1 243.5 112.893)" fill="#2563EB"/>
</g>
<g filter="url(#filter3_bd_70_494)">
<rect width="150.035" height="69.3954" rx="16" transform="matrix(-0.866025 -0.5 -2.20305e-08 1 159.434 158.171)" fill="#2563EB"/>
</g>
<g filter="url(#filter4_bd_70_494)">
<rect width="150.035" height="69.5242" rx="16" transform="matrix(-0.866025 -0.5 -2.20305e-08 1 159.434 238.781)" fill="#2563EB"/>
</g>
<path d="M336.499 140V46.9091H403.59V67.2727H361.772V83.2727H400.135V103.636H361.772V119.636H403.408V140H336.499ZM440.655 46.9091L455.928 74H456.655L472.109 46.9091H500.291L472.473 93.4545L501.382 140H472.473L456.655 112.364H455.928L440.109 140H411.382L439.928 93.4545L412.291 46.9091H440.655ZM508.629 140V46.9091H548.811C555.72 46.9091 561.765 48.2727 566.947 51C572.129 53.7273 576.159 57.5606 579.038 62.5C581.917 67.4394 583.356 73.2121 583.356 79.8182C583.356 86.4848 581.871 92.2576 578.902 97.1364C575.962 102.015 571.826 105.773 566.493 108.409C561.19 111.045 554.993 112.364 547.902 112.364H523.902V92.7273H542.811C545.781 92.7273 548.311 92.2121 550.402 91.1818C552.523 90.1212 554.144 88.6212 555.265 86.6818C556.417 84.7424 556.993 82.4545 556.993 79.8182C556.993 77.1515 556.417 74.8788 555.265 73C554.144 71.0909 552.523 69.6364 550.402 68.6364C548.311 67.6061 545.781 67.0909 542.811 67.0909H533.902V140H508.629ZM590.069 140V46.9091H657.16V67.2727H615.342V83.2727H653.705V103.636H615.342V119.636H656.978V140H590.069ZM667.134 140V46.9091H707.316C714.225 46.9091 720.27 48.1667 725.452 50.6818C730.634 53.197 734.664 56.8182 737.543 61.5455C740.422 66.2727 741.861 71.9394 741.861 78.5455C741.861 85.2121 740.376 90.8333 737.407 95.4091C734.467 99.9848 730.331 103.439 724.998 105.773C719.695 108.106 713.498 109.273 706.407 109.273H682.407V89.6364H701.316C704.286 89.6364 706.816 89.2727 708.907 88.5455C711.028 87.7879 712.649 86.5909 713.77 84.9545C714.922 83.3182 715.498 81.1818 715.498 78.5455C715.498 75.8788 714.922 73.7121 713.77 72.0455C712.649 70.3485 711.028 69.1061 708.907 68.3182C706.816 67.5 704.286 67.0909 701.316 67.0909H692.407V140H667.134ZM721.679 97.2727L744.952 140H717.498L694.77 97.2727H721.679ZM747.529 67.2727V46.9091H828.438V67.2727H800.438V140H775.529V67.2727H747.529ZM860.662 46.9091V140H835.389V46.9091H860.662ZM920.261 76C920.018 72.9697 918.882 70.6061 916.852 68.9091C914.852 67.2121 911.806 66.3636 907.715 66.3636C905.109 66.3636 902.973 66.6818 901.306 67.3182C899.67 67.9242 898.458 68.7576 897.67 69.8182C896.882 70.8788 896.473 72.0909 896.443 73.4545C896.382 74.5758 896.579 75.5909 897.034 76.5C897.518 77.3788 898.276 78.1818 899.306 78.9091C900.337 79.6061 901.655 80.2424 903.261 80.8182C904.867 81.3939 906.776 81.9091 908.988 82.3636L916.624 84C921.776 85.0909 926.185 86.5303 929.852 88.3182C933.518 90.1061 936.518 92.2121 938.852 94.6364C941.185 97.0303 942.897 99.7273 943.988 102.727C945.109 105.727 945.685 109 945.715 112.545C945.685 118.667 944.155 123.848 941.124 128.091C938.094 132.333 933.761 135.561 928.124 137.773C922.518 139.985 915.776 141.091 907.897 141.091C899.806 141.091 892.746 139.894 886.715 137.5C880.715 135.106 876.049 131.424 872.715 126.455C869.412 121.455 867.746 115.061 867.715 107.273H891.715C891.867 110.121 892.579 112.515 893.852 114.455C895.124 116.394 896.912 117.864 899.215 118.864C901.549 119.864 904.321 120.364 907.534 120.364C910.231 120.364 912.488 120.03 914.306 119.364C916.124 118.697 917.503 117.773 918.443 116.591C919.382 115.409 919.867 114.061 919.897 112.545C919.867 111.121 919.397 109.879 918.488 108.818C917.609 107.727 916.155 106.758 914.124 105.909C912.094 105.03 909.352 104.212 905.897 103.455L896.624 101.455C888.382 99.6667 881.882 96.6818 877.124 92.5C872.397 88.2879 870.049 82.5455 870.079 75.2727C870.049 69.3636 871.624 64.197 874.806 59.7727C878.018 55.3182 882.458 51.8485 888.124 49.3636C893.821 46.8788 900.352 45.6364 907.715 45.6364C915.231 45.6364 921.731 46.8939 927.215 49.4091C932.7 51.9242 936.928 55.4697 939.897 60.0455C942.897 64.5909 944.412 69.9091 944.443 76H920.261ZM952.769 140V46.9091H1019.86V67.2727H978.042V83.2727H1016.41V103.636H978.042V119.636H1019.68V140H952.769ZM336.499 275V181.909H376.863C383.954 181.909 389.908 182.864 394.726 184.773C399.575 186.682 403.226 189.379 405.681 192.864C408.166 196.348 409.408 200.455 409.408 205.182C409.408 208.606 408.651 211.727 407.135 214.545C405.651 217.364 403.56 219.727 400.863 221.636C398.166 223.515 395.014 224.818 391.408 225.545V226.455C395.408 226.606 399.044 227.621 402.317 229.5C405.59 231.348 408.196 233.909 410.135 237.182C412.075 240.424 413.044 244.242 413.044 248.636C413.044 253.727 411.711 258.258 409.044 262.227C406.408 266.197 402.651 269.318 397.772 271.591C392.893 273.864 387.075 275 380.317 275H336.499ZM361.772 254.818H373.59C377.832 254.818 381.014 254.03 383.135 252.455C385.257 250.848 386.317 248.485 386.317 245.364C386.317 243.182 385.817 241.333 384.817 239.818C383.817 238.303 382.393 237.152 380.544 236.364C378.726 235.576 376.529 235.182 373.954 235.182H361.772V254.818ZM361.772 219.545H372.135C374.348 219.545 376.302 219.197 377.999 218.5C379.696 217.803 381.014 216.803 381.954 215.5C382.923 214.167 383.408 212.545 383.408 210.636C383.408 207.758 382.378 205.561 380.317 204.045C378.257 202.5 375.651 201.727 372.499 201.727H361.772V219.545ZM443.621 275H416.348L447.075 181.909H481.621L512.348 275H485.075L464.712 207.545H463.984L443.621 275ZM438.53 238.273H489.803V257.182H438.53V238.273ZM504.459 202.273V181.909H585.368V202.273H557.368V275H532.459V202.273H504.459ZM617.592 181.909V275H592.319V181.909H617.592ZM627.009 181.909H658.464L680.1 234.636H681.191L702.827 181.909H734.282V275H709.554V221.182H708.827L688.1 274.273H673.191L652.464 220.818H651.736V275H627.009V181.909ZM743.699 275V181.909H810.79V202.273H768.972V218.273H807.335V238.636H768.972V254.636H810.608V275H743.699ZM901.309 181.909V275H880.219L846.582 226.091H846.037V275H820.764V181.909H842.219L875.309 230.636H876.037V181.909H901.309ZM908.159 202.273V181.909H989.068V202.273H961.068V275H936.159V202.273H908.159Z" fill="#2563EB"/>
<defs>
<filter id="filter0_bd_70_494" x="136.565" y="108.678" width="109.962" height="232.511" filterUnits="userSpaceOnUse" color-interpolation-filters="sRGB">
<feFlood flood-opacity="0" result="BackgroundImageFix"/>
<feGaussianBlur in="BackgroundImageFix" stdDeviation="12.8"/>
<feComposite in2="SourceAlpha" operator="in" result="effect1_backgroundBlur_70_494"/>
<feColorMatrix in="SourceAlpha" type="matrix" values="0 0 0 0 0 0 0 0 0 0 0 0 0 0 0 0 0 0 127 0" result="hardAlpha"/>
<feOffset dy="4"/>
<feGaussianBlur stdDeviation="14.5"/>
<feComposite in2="hardAlpha" operator="out"/>
<feColorMatrix type="matrix" values="0 0 0 0 0 0 0 0 0 0 0 0 0 0 0 0 0 0 0.12 0"/>
<feBlend mode="normal" in2="effect1_backgroundBlur_70_494" result="effect2_dropShadow_70_494"/>
<feBlend mode="normal" in="SourceGraphic" in2="effect2_dropShadow_70_494" result="shape"/>
</filter>
<filter id="filter1_bd_70_494" x="137.662" y="108.463" width="186.726" height="187.68" filterUnits="userSpaceOnUse" color-interpolation-filters="sRGB">
<feFlood flood-opacity="0" result="BackgroundImageFix"/>
<feGaussianBlur in="BackgroundImageFix" stdDeviation="12.8"/>
<feComposite in2="SourceAlpha" operator="in" result="effect1_backgroundBlur_70_494"/>
<feColorMatrix in="SourceAlpha" type="matrix" values="0 0 0 0 0 0 0 0 0 0 0 0 0 0 0 0 0 0 127 0" result="hardAlpha"/>
<feOffset dy="4"/>
<feGaussianBlur stdDeviation="14.5"/>
<feComposite in2="hardAlpha" operator="out"/>
<feColorMatrix type="matrix" values="0 0 0 0 0 0 0 0 0 0 0 0 0 0 0 0 0 0 0.12 0"/>
<feBlend mode="normal" in2="effect1_backgroundBlur_70_494" result="effect2_dropShadow_70_494"/>
<feBlend mode="normal" in="SourceGraphic" in2="effect2_dropShadow_70_494" result="shape"/>
</filter>
<filter id="filter2_bd_70_494" x="214.5" y="63.4004" width="109.962" height="232.511" filterUnits="userSpaceOnUse" color-interpolation-filters="sRGB">
<feFlood flood-opacity="0" result="BackgroundImageFix"/>
<feGaussianBlur in="BackgroundImageFix" stdDeviation="12.8"/>
<feComposite in2="SourceAlpha" operator="in" result="effect1_backgroundBlur_70_494"/>
<feColorMatrix in="SourceAlpha" type="matrix" values="0 0 0 0 0 0 0 0 0 0 0 0 0 0 0 0 0 0 127 0" result="hardAlpha"/>
<feOffset dy="4"/>
<feGaussianBlur stdDeviation="14.5"/>
<feComposite in2="hardAlpha" operator="out"/>
<feColorMatrix type="matrix" values="0 0 0 0 0 0 0 0 0 0 0 0 0 0 0 0 0 0 0.12 0"/>
<feBlend mode="normal" in2="effect1_backgroundBlur_70_494" result="effect2_dropShadow_70_494"/>
<feBlend mode="normal" in="SourceGraphic" in2="effect2_dropShadow_70_494" result="shape"/>
</filter>
<filter id="filter3_bd_70_494" x="0.5" y="63.6608" width="187.934" height="190.798" filterUnits="userSpaceOnUse" color-interpolation-filters="sRGB">
<feFlood flood-opacity="0" result="BackgroundImageFix"/>
<feGaussianBlur in="BackgroundImageFix" stdDeviation="12.8"/>
<feComposite in2="SourceAlpha" operator="in" result="effect1_backgroundBlur_70_494"/>
<feColorMatrix in="SourceAlpha" type="matrix" values="0 0 0 0 0 0 0 0 0 0 0 0 0 0 0 0 0 0 127 0" result="hardAlpha"/>
<feOffset dy="4"/>
<feGaussianBlur stdDeviation="14.5"/>
<feComposite in2="hardAlpha" operator="out"/>
<feColorMatrix type="matrix" values="0 0 0 0 0 0 0 0 0 0 0 0 0 0 0 0 0 0 0.12 0"/>
<feBlend mode="normal" in2="effect1_backgroundBlur_70_494" result="effect2_dropShadow_70_494"/>
<feBlend mode="normal" in="SourceGraphic" in2="effect2_dropShadow_70_494" result="shape"/>
</filter>
<filter id="filter4_bd_70_494" x="0.5" y="144.271" width="187.934" height="190.927" filterUnits="userSpaceOnUse" color-interpolation-filters="sRGB">
<feFlood flood-opacity="0" result="BackgroundImageFix"/>
<feGaussianBlur in="BackgroundImageFix" stdDeviation="12.8"/>
<feComposite in2="SourceAlpha" operator="in" result="effect1_backgroundBlur_70_494"/>
<feColorMatrix in="SourceAlpha" type="matrix" values="0 0 0 0 0 0 0 0 0 0 0 0 0 0 0 0 0 0 127 0" result="hardAlpha"/>
<feOffset dy="4"/>
<feGaussianBlur stdDeviation="14.5"/>
<feComposite in2="hardAlpha" operator="out"/>
<feColorMatrix type="matrix" values="0 0 0 0 0 0 0 0 0 0 0 0 0 0 0 0 0 0 0.12 0"/>
<feBlend mode="normal" in2="effect1_backgroundBlur_70_494" result="effect2_dropShadow_70_494"/>
<feBlend mode="normal" in="SourceGraphic" in2="effect2_dropShadow_70_494" result="shape"/>
</filter>
</defs>
</svg>
