<?xml version="1.0" standalone="no"?>
<!DOCTYPE svg PUBLIC "-//W3C//DTD SVG 20010904//EN"
 "http://www.w3.org/TR/2001/REC-SVG-20010904/DTD/svg10.dtd">
<svg version="1.0" xmlns="http://www.w3.org/2000/svg"
 width="700.000000pt" height="700.000000pt" viewBox="0 0 700.000000 700.000000"
 preserveAspectRatio="xMidYMid meet">
<metadata>
Created by potrace 1.14, written by Peter Selinger 2001-2017
</metadata>
<g transform="translate(0.000000,700.000000) scale(0.100000,-0.100000)"
fill="#000000" stroke="none">
<path d="M0 3500 l0 -3500 3500 0 3500 0 0 3500 0 3500 -3500 0 -3500 0 0
-3500z m1244 2213 c3 -16 14 -82 25 -148 146 -866 646 -1879 1337 -2710 141
-170 535 -564 695 -696 552 -454 1071 -705 1552 -749 563 -52 999 254 1162
815 57 198 70 305 70 605 0 209 -5 302 -18 389 -9 63 -15 116 -13 118 2 2 13
-43 25 -99 132 -641 63 -1175 -200 -1528 -183 -246 -441 -395 -774 -446 -136
-21 -408 -14 -560 15 -827 156 -1708 740 -2440 1616 -180 215 -420 559 -564
807 -69 121 -222 426 -267 533 l-29 70 -3 -425 -2 -425 -185 -185 -185 -185 0
1328 0 1327 184 0 184 0 6 -27z m1901 16 c192 -19 329 -70 427 -158 101 -90
121 -174 116 -473 -3 -188 -5 -206 -26 -250 -32 -64 -90 -114 -186 -158 l-81
-38 30 -12 c167 -70 227 -116 266 -203 22 -49 24 -66 27 -300 4 -264 -4 -347
-39 -423 -43 -90 -149 -182 -266 -230 -30 -11 -56 -24 -59 -26 -3 -3 40 -45
94 -93 345 -300 719 -513 1122 -637 199 -61 356 -89 635 -115 l80 -7 -85 -7
c-161 -13 -555 -10 -706 6 -343 36 -622 118 -894 262 -390 206 -849 596 -1209
1028 l-133 160 4 155 c4 145 6 159 33 218 35 77 92 130 192 177 40 19 77 35
83 35 28 0 3 20 -57 46 -48 19 -85 45 -125 84 -88 88 -88 89 -88 567 l0 403
368 0 c203 0 418 -5 477 -11z"/>
<path d="M2916 5419 c-22 -5 -54 -19 -73 -30 -59 -36 -63 -56 -63 -276 0 -171
3 -204 19 -239 28 -62 71 -79 203 -79 118 0 141 9 186 75 21 31 22 42 22 234
0 234 -6 255 -81 294 -51 26 -154 36 -213 21z"/>
<path d="M2885 4488 c-51 -18 -86 -49 -106 -92 -16 -36 -19 -68 -19 -271 0
-128 5 -246 10 -267 24 -85 103 -131 225 -130 127 1 203 44 224 126 14 56 15
477 1 527 -12 42 -51 82 -102 103 -43 18 -186 20 -233 4z"/>
</g>
</svg>
