<?xml version="1.0" standalone="no"?>
<!DOCTYPE svg PUBLIC "-//W3C//DTD SVG 20010904//EN"
 "http://www.w3.org/TR/2001/REC-SVG-20010904/DTD/svg10.dtd">
<svg version="1.0" xmlns="http://www.w3.org/2000/svg"
 width="304.000000pt" height="304.000000pt" viewBox="0 0 304.000000 304.000000"
 preserveAspectRatio="xMidYMid meet">
<metadata>
Created by potrace 1.14, written by Peter Selinger 2001-2017
</metadata>
<g transform="translate(0.000000,304.000000) scale(0.100000,-0.100000)"
fill="#000000" stroke="none">
<path d="M1490 3029 c-54 -7 -78 -17 -150 -59 -30 -18 -71 -42 -90 -53 -61
-34 -428 -246 -625 -360 -104 -61 -209 -121 -232 -135 -48 -27 -83 -66 -83
-93 0 -23 41 -71 76 -89 16 -8 57 -32 91 -52 35 -21 67 -38 73 -38 5 0 10 -4
10 -10 0 -5 4 -10 9 -10 9 0 325 -180 460 -262 34 -21 65 -38 67 -38 3 0 21
-11 42 -23 20 -13 60 -36 87 -52 28 -15 84 -47 127 -72 79 -46 108 -54 195
-54 64 0 90 11 250 104 70 41 229 133 353 204 124 72 286 165 360 208 74 43
144 83 155 89 42 23 64 43 76 68 20 46 -2 79 -84 127 -40 23 -79 46 -87 51
-14 9 -99 58 -560 323 -96 55 -186 107 -200 116 -155 97 -229 123 -320 110z"/>
<path d="M239 2188 c-44 -15 -49 -42 -49 -284 l0 -224 28 -63 c19 -41 44 -76
73 -101 36 -31 236 -150 559 -334 25 -14 141 -81 259 -149 118 -69 231 -133
250 -142 42 -22 78 -18 106 10 19 18 20 33 20 262 0 239 0 243 -26 297 -14 30
-41 70 -60 88 -27 25 -301 192 -316 192 -2 0 -32 17 -66 39 -34 21 -105 62
-157 92 -52 30 -107 61 -121 69 -14 8 -90 52 -170 98 -79 46 -153 89 -164 95
-74 45 -93 54 -115 59 -14 2 -37 1 -51 -4z"/>
<path d="M2740 2193 c-50 -18 -300 -173 -328 -202 -70 -78 -77 -103 -80 -333
-2 -115 -7 -208 -12 -208 -5 0 -10 4 -12 9 -1 5 -64 72 -138 148 -169 173
-155 171 -355 54 -157 -92 -195 -124 -233 -196 l-27 -50 -3 -670 c-2 -655 -2
-671 18 -702 33 -54 66 -47 240 52 151 87 192 122 232 198 22 39 23 56 26 261
l3 219 71 -74 c38 -41 106 -112 151 -158 80 -81 83 -83 122 -78 50 6 283 140
340 195 22 21 51 59 65 83 l25 44 3 670 c2 500 0 676 -9 698 -16 38 -58 55
-99 40z"/>
<path d="M219 1371 c-24 -19 -24 -21 -27 -253 -5 -371 -15 -358 448 -623 172
-99 319 -181 327 -183 7 -2 13 -8 13 -13 0 -5 4 -9 10 -9 5 0 76 -39 157 -86
82 -47 167 -97 190 -110 50 -29 93 -31 124 -5 24 19 24 22 27 243 3 246 -2
286 -50 360 -26 42 -119 116 -178 142 -8 3 -31 16 -50 27 -49 30 -336 197
-390 227 -25 14 -153 88 -285 164 -145 84 -250 138 -266 138 -15 0 -37 -9 -50
-19z"/>
</g>
</svg>
